<svg width="256" height="256" xmlns="http://www.w3.org/2000/svg">
 <defs>
  <radialGradient r="0.5" cy="0.48987" cx="0.48047" spreadMethod="pad" id="svg_4">
   <stop offset="0" stop-opacity="0.99609" stop-color="#ff004c"/>
   <stop offset="0.87109" stop-opacity="0.99609" stop-color="#0000fc"/>
  </radialGradient>
 </defs>
 <g>
  <title>Layer 1</title>
  <rect stroke="#000" id="svg_1" height="260" width="258" y="-2" x="-0.5" fill="url(#svg_4)"/>
  <g stroke="null">
   <path stroke="null" d="m90.21302,133.2329c0.23363,0.90797 -0.31075,1.83179 -1.21805,2.06727a1.69892,1.69593 0 0 1 -2.07091,-1.21591c-0.2359,-0.89438 -0.43777,-1.78651 -0.60335,-2.67636c-0.16785,-0.89665 -0.29714,-1.7933 -0.39241,-2.68768c-0.05897,-0.57739 -0.10207,-1.16836 -0.13156,-1.76839c-0.03176,-0.66343 -0.04763,-1.25667 -0.04763,-1.78877c0,-10.03749 4.0783,-19.12399 10.66755,-25.70168c6.58925,-6.57996 15.69399,-10.64884 25.74685,-10.64884c10.05967,0 19.16894,4.04398 25.76046,10.59903c6.58245,6.54826 10.65395,15.594 10.65395,25.62016c0,0.93967 -0.76213,1.70046 -1.70345,1.70046s-1.70572,-0.76079 -1.70572,-1.70046c0,-9.09329 -3.68363,-17.28993 -9.64231,-23.21325c-5.97002,-5.93917 -14.23324,-9.60275 -23.36292,-9.60275c-9.11381,0 -17.36568,3.68849 -23.33797,9.6503c-5.97229,5.95955 -9.66499,14.19921 -9.66499,23.29703c0,0.61588 0.00907,1.16383 0.03176,1.62801l0,0.00679c0.02495,0.52305 0.06351,1.04835 0.11795,1.57593c0.08619,0.81061 0.20414,1.61895 0.35385,2.42276c0.1497,0.81061 0.33343,1.62348 0.54892,2.43635zm74.3576,19.06964l21.92939,23.8563l-15.12012,13.79617l-21.14685,-23.22457c-8.03412,5.34819 -17.68777,8.46609 -28.06953,8.46609c-13.98827,0 -26.65641,-5.66066 -35.82466,-14.81509c-9.16825,-9.15216 -14.83886,-21.79582 -14.83886,-35.76181c0,-13.96372 5.67061,-26.60965 14.83886,-35.76181s21.83639,-14.81282 35.82466,-14.81282c13.99053,0 26.65641,5.66066 35.82466,14.81282c9.17051,9.15216 14.84113,21.79808 14.84113,35.76181c0,10.21863 -3.03718,19.72854 -8.25868,27.68291zm-10.57909,-59.45282c-8.143,-8.13098 -19.39803,-13.15991 -31.82801,-13.15991s-23.68274,5.02893 -31.82801,13.15991c-8.143,8.12871 -13.18077,19.364 -13.18077,31.76991c0,12.40817 5.03777,23.64346 13.18077,31.77217c8.14527,8.13098 19.39803,13.15991 31.82801,13.15991s23.68501,-5.02893 31.82801,-13.15991c8.14527,-8.12871 13.18304,-19.364 13.18304,-31.77217c0,-12.40591 -5.03777,-23.64119 -13.18304,-31.76991zm-47.9144,55.09184c0.46045,-0.73136 1.42673,-0.94873 2.15937,-0.48908a1.5669,1.56415 0 0 1 0.48994,2.15558l-2.60621,4.1504c-0.46045,0.72909 -1.42899,0.94873 -2.15937,0.48908a1.56554,1.5628 0 0 1 -0.49221,-2.15558l2.60848,-4.1504zm13.26016,1.48083c0.186,-0.84231 1.02071,-1.37441 1.8645,-1.18874c0.84379,0.18567 1.37682,1.02118 1.19083,1.86349l-1.12959,5.06516a1.56418,1.56144 0 0 1 -1.8645,1.18874c-0.84379,-0.18567 -1.37682,-1.02118 -1.19083,-1.86349l1.12959,-5.06516zm1.46529,-24.85031c-0.15424,-0.8491 0.40828,-1.66424 1.25888,-1.81821a1.566,1.56325 0 0 1 1.82367,1.2544c0.66006,3.54131 0.97535,7.11885 0.98669,10.71903c0.00907,3.57754 -0.28353,7.17319 -0.84152,10.76885a1.56418,1.56144 0 0 1 -3.09162,-0.47776c0.53304,-3.43715 0.8143,-6.87431 0.80296,-10.29109c-0.00907,-3.39866 -0.31075,-6.78827 -0.93905,-10.15523zm-8.31539,31.22648c-0.49901,0.70419 -1.47663,0.87174 -2.18432,0.3736c-0.70542,-0.49814 -0.87327,-1.47404 -0.37426,-2.18049c0.89596,-1.26346 1.65582,-2.64919 2.27505,-4.15719c0.6215,-1.51253 1.10237,-3.16544 1.43807,-4.96101c0.6215,-3.32847 0.32209,-7.60567 0.03856,-11.64738c-0.09527,-1.35856 -0.19053,-2.69221 -0.24951,-4.08247c-0.08846,-2.02425 -0.12475,-4.01454 0.25404,-5.83501c0.42189,-2.01746 1.33146,-3.77227 3.1574,-5.04705c0.41055,-0.28756 0.85286,-0.54342 1.32692,-0.76079c0.47406,-0.21963 0.98669,-0.4121 1.5356,-0.56607c0.40375,-0.11548 0.8075,-0.20605 1.21124,-0.27624c2.7287,-0.46644 4.89714,0.24228 6.57337,1.70273c1.57643,1.37214 2.64704,3.38734 3.29803,5.66972c0.1928,0.67928 0.35158,1.38573 0.47633,2.11256c0.06578,0.39172 0.12475,0.79249 0.17012,1.191c0.04763,0.39172 0.08393,0.79929 0.11114,1.21138c0.26992,4.09153 0.09073,9.19745 -0.46272,14.19468c-0.53077,4.78892 -1.41312,9.51218 -2.58353,13.19161c-0.26085,0.82193 -1.1432,1.27931 -1.96884,1.01892a1.56668,1.56393 0 0 1 -1.02071,-1.96538c1.1001,-3.45527 1.93708,-7.97021 2.44744,-12.58932c0.53531,-4.82515 0.70769,-9.73634 0.44911,-13.65352c-0.02268,-0.33511 -0.05444,-0.68834 -0.09753,-1.05288c-0.03856,-0.33738 -0.08846,-0.67928 -0.14744,-1.01892c-0.10207,-0.60909 -0.2359,-1.20459 -0.39921,-1.77971c-0.49901,-1.74122 -1.26341,-3.23337 -2.33856,-4.17078c-0.97761,-0.8491 -2.28412,-1.25667 -3.9785,-0.96684l-0.00454,0c-0.26765,0.04529 -0.56026,0.11321 -0.87327,0.20152c-0.39921,0.11321 -0.76213,0.2468 -1.08195,0.39398c-0.32209,0.14944 -0.60335,0.3102 -0.84606,0.48002c-1.06381,0.74268 -1.60819,1.83632 -1.87584,3.11789c-0.31075,1.48083 -0.27219,3.24696 -0.19507,5.06063c0.05217,1.1978 0.15197,2.59258 0.24951,4.01001c0.29714,4.22512 0.61243,8.69704 -0.08846,12.43308c-0.36972,1.98123 -0.91183,3.83567 -1.62179,5.5633c-0.70996,1.7299 -1.5855,3.32621 -2.61982,4.78439zm-2.74458,-11.31227c-0.15424,0.88759 -1.0003,1.48083 -1.88945,1.32686c-0.88915,-0.15397 -1.48343,-1.00081 -1.32919,-1.88613c0.30848,-1.72537 0.48314,-3.65226 0.54211,-5.74671c0.06351,-2.13294 0.01134,-4.47192 -0.13156,-6.97394c-0.03176,-0.54569 -0.07939,-1.21591 -0.12475,-1.85896c-0.30394,-4.32022 -0.55118,-7.80039 1.99379,-12.31987c1.12959,-2.00614 2.70375,-3.72019 4.82909,-5.06969c0.08166,-0.05208 0.16331,-0.09283 0.24724,-0.12906c1.54014,-0.73815 3.07574,-1.31101 4.60907,-1.68461c1.59004,-0.38719 3.16647,-0.55927 4.72475,-0.47323c0.89822,0.04529 1.59004,0.81061 1.54467,1.70726c-0.04536,0.89891 -0.81203,1.58951 -1.71026,1.54196c-1.24073,-0.06566 -2.50641,0.07246 -3.79251,0.38719c-1.28156,0.31247 -2.59487,0.80381 -3.93314,1.44234c-1.61726,1.0393 -2.81489,2.34804 -3.67229,3.87189c-2.06637,3.67037 -1.85089,6.71581 -1.58323,10.49487l0,0.00679c0.03856,0.56833 0.08166,1.15025 0.12475,1.90425c0.14517,2.56088 0.19734,4.98591 0.13156,7.24112c-0.06578,2.2937 -0.25178,4.38135 -0.58067,6.21767zm18.44083,-29.9834a1.63359,1.63072 0 0 1 -0.54211,-2.23709a1.62973,1.62687 0 0 1 2.24103,-0.54116c0.39467,0.24001 0.79842,0.51399 1.20671,0.81966c0.41736,0.31247 0.81203,0.63626 1.17949,0.97137c5.17387,4.69156 6.93176,12.21345 7.04744,20.07271c0.10888,7.6102 -1.32239,15.54871 -2.6357,21.39957c-0.1928,0.87627 -1.06381,1.42875 -1.94162,1.23629a1.63041,1.62755 0 0 1 -1.23846,-1.93821c1.27249,-5.67651 2.66292,-13.36369 2.55858,-20.65916c-0.10207,-7.04866 -1.59911,-13.72371 -5.98817,-17.70203a13.29554,13.27222 0 0 0 -0.93452,-0.77891c-0.30168,-0.22643 -0.6215,-0.44153 -0.95266,-0.64305zm-29.2785,35.26367a1.63767,1.6348 0 0 1 -2.31361,-0.14038c-0.59882,-0.67702 -0.53531,-1.71178 0.1429,-2.30955c1.6286,-1.43781 2.81943,-3.29224 3.50671,-5.62217c0.7145,-2.41597 0.89142,-5.36178 0.47179,-8.8963c-0.78935,-3.86737 -0.92998,-7.44038 -0.46726,-10.66695c0.48314,-3.39187 1.63314,-6.40334 3.39103,-8.97781c0.51036,-0.74721 1.53333,-0.93967 2.28185,-0.43021c0.74852,0.50946 0.94132,1.53064 0.43097,2.27785c-1.47209,2.15784 -2.43836,4.70514 -2.85345,7.59208c-0.41055,2.86656 -0.27899,6.0637 0.43097,9.55067c0.02041,0.07925 0.03856,0.16076 0.04763,0.2468c0.4786,3.98737 0.25858,7.37698 -0.58294,10.22769c-0.86874,2.94354 -2.393,5.30291 -4.48659,7.14829zm13.66391,-40.51676c-0.78481,0.44832 -1.78738,0.17888 -2.23649,-0.60456a1.63699,1.63412 0 0 1 0.60335,-2.23257c1.5356,-0.88306 3.16193,-1.58499 4.8427,-2.09445c4.62041,-1.40158 9.63777,-1.36082 14.19921,0.23775c4.58866,1.60989 8.71686,4.78213 11.52268,9.62992l0.0499,0.0951c0.91183,1.59404 1.68304,3.36923 2.27732,5.32329c0.86647,2.84392 1.45394,6.01162 1.75108,9.4918c0.29487,3.41904 0.31529,7.17093 0.05217,11.2534l-0.95266,9.40349a1.63994,1.63706 0 1 1 -3.264,-0.32153l0.93905,-9.28575c0.24951,-3.90133 0.23136,-7.49698 -0.05217,-10.78017c-0.28126,-3.27866 -0.8211,-6.21767 -1.61045,-8.81252c-0.51943,-1.71178 -1.19083,-3.26054 -1.98245,-4.64401l-0.0499,-0.07925c-2.38619,-4.12776 -5.88156,-6.81997 -9.76026,-8.18079c-3.90365,-1.36762 -8.20424,-1.40158 -12.16913,-0.19926a19.74893,19.71428 0 0 0 -4.15996,1.80009zm36.67525,26.86098c0,-0.91476 0.74398,-1.65971 1.66262,-1.65971c0.91637,0 1.66262,0.74494 1.66262,1.65971l0,5.70821c0,0.91476 -0.74625,1.65744 -1.66262,1.65744c-0.91864,0 -1.66262,-0.74268 -1.66262,-1.65744l0,-5.70821zm-54.6647,8.72421a1.65809,1.65518 0 0 1 -2.33629,-0.16982c-0.59882,-0.6906 -0.5217,-1.73443 0.16785,-2.33219c0.32209,-0.2785 0.60789,-0.61135 0.85286,-0.99628c0.25404,-0.40304 0.46726,-0.87627 0.63965,-1.41969c0.88688,-2.8258 0.34477,-5.8101 -0.20641,-8.83743c-0.38107,-2.09218 -0.7644,-4.20701 -0.75079,-6.42825c0.06578,-11.33038 7.16312,-20.57085 16.44477,-25.29864c3.89458,-1.9835 8.1861,-3.17676 12.51391,-3.39866c4.35276,-0.2219 8.73955,0.53663 12.79063,2.46126c9.03442,4.28852 16.36992,14.30336 17.89191,32.01898a1.66194,1.65903 0 0 1 -1.51972,1.78877a1.66194,1.65903 0 0 1 -1.79191,-1.51706c-1.40404,-16.34347 -7.95247,-25.47978 -15.99566,-29.29733c-3.54073,-1.68235 -7.3854,-2.34578 -11.20513,-2.14879c-3.84694,0.19699 -7.68028,1.26799 -11.17564,3.0477c-8.26775,4.20927 -14.58481,12.381 -14.64379,22.35736c-0.00907,1.92236 0.34704,3.88774 0.70089,5.83275c0.62377,3.43263 1.24073,6.82223 0.11341,10.4043c-0.25404,0.81287 -0.59201,1.54423 -1.00256,2.19634c-0.42189,0.66569 -0.91864,1.24308 -1.48797,1.73669z" fill-rule="nonzero"/>
  </g>
 </g>
</svg>