<svg width="256" height="256" xmlns="http://www.w3.org/2000/svg">
 <defs>
  <radialGradient cy="0.49689" cx="0.50391" spreadMethod="pad" id="svg_2">
   <stop offset="0" stop-opacity="0.99609" stop-color="#ff004c"/>
   <stop offset="1" stop-opacity="0.99609" stop-color="#0000fc"/>
  </radialGradient>
 </defs>
 <g>
  <title>Layer 1</title>
  <rect stroke="#000" id="svg_1" height="261" width="259" y="-2.5" x="-1" fill="url(#svg_2)"/>
  <g stroke="null">
   <path stroke="null" d="m86.65384,133.87118c0.2641,1.0098 -0.35128,2.03724 -1.37692,2.29913a1.92051,1.88614 0 0 1 -2.34103,-1.35228c-0.26667,-0.9947 -0.49487,-1.98687 -0.68205,-2.97653c-0.18974,-0.99721 -0.3359,-1.99443 -0.44359,-2.98912c-0.06667,-0.64215 -0.11538,-1.2994 -0.14872,-1.96673c-0.0359,-0.73784 -0.05385,-1.39761 -0.05385,-1.98939c0,-11.16325 4.61026,-21.26885 12.05897,-28.58427c7.44872,-7.31794 17.74103,-11.84317 29.10513,-11.84317c11.3718,0 21.66923,4.49753 29.12051,11.78777c7.44103,7.28268 12.04359,17.34296 12.04359,28.49362c0,1.04506 -0.86154,1.89118 -1.92564,1.89118s-1.92821,-0.84612 -1.92821,-1.89118c0,-10.11316 -4.1641,-19.2291 -10.9,-25.81675c-6.74872,-6.60528 -16.08974,-10.67975 -26.41026,-10.67975c-10.30256,0 -19.63077,4.10217 -26.38205,10.73264c-6.75128,6.62795 -10.92564,15.79173 -10.92564,25.90993c0,0.68495 0.01026,1.29436 0.0359,1.8106l0,0.00755c0.02821,0.58171 0.07179,1.16593 0.13333,1.75268c0.09744,0.90152 0.23077,1.80052 0.4,2.69449c0.16923,0.90152 0.37692,1.80556 0.62051,2.7096zm84.05641,21.20842l24.78974,26.53193l-17.09231,15.34349l-23.90513,-25.82934c-9.08205,5.94803 -19.99487,9.41561 -31.73077,9.41561c-15.81282,0 -30.13333,-6.29554 -40.49744,-16.47669c-10.3641,-10.17863 -16.77436,-24.24035 -16.77436,-39.77271c0,-15.52984 6.41026,-29.59408 16.77436,-39.77271s24.68462,-16.47417 40.49744,-16.47417c15.81539,0 30.13333,6.29554 40.49744,16.47417c10.36667,10.17863 16.77692,24.24287 16.77692,39.77271c0,11.36471 -3.43333,21.94122 -9.3359,30.78771zm-11.95897,-66.1208c-9.20513,-9.04291 -21.92821,-14.63587 -35.97949,-14.63587s-26.7718,5.59296 -35.97949,14.63587c-9.20513,9.0404 -14.9,21.53579 -14.9,35.33309c0,13.79982 5.69487,26.29521 14.9,35.33561c9.20769,9.04291 21.92821,14.63587 35.97949,14.63587s26.77436,-5.59296 35.97949,-14.63587c9.20769,-9.0404 14.90256,-21.53579 14.90256,-35.33561c0,-13.79731 -5.69487,-26.2927 -14.90256,-35.33309zm-54.1641,61.27072c0.52051,-0.81338 1.61282,-1.05513 2.44103,-0.54393a1.77128,1.73958 0 0 1 0.55385,2.39734l-2.94615,4.61589c-0.52051,0.81087 -1.61538,1.05513 -2.44103,0.54393a1.76974,1.73807 0 0 1 -0.55641,-2.39734l2.94872,-4.61589zm14.98974,1.64691c0.21026,-0.93678 1.15385,-1.52856 2.10769,-1.32206c0.95385,0.20649 1.55641,1.13572 1.34615,2.07249l-1.27692,5.63325a1.76821,1.73656 0 0 1 -2.10769,1.32206c-0.95385,-0.20649 -1.55641,-1.13572 -1.34615,-2.07249l1.27692,-5.63325zm1.65641,-27.63742c-0.17436,-0.94433 0.46154,-1.85089 1.42308,-2.02213a1.77026,1.73858 0 0 1 2.06154,1.39509c0.74615,3.93849 1.10256,7.91727 1.11538,11.92124c0.01026,3.97878 -0.32051,7.97771 -0.95128,11.97664a1.76821,1.73656 0 0 1 -3.49487,-0.53134c0.60256,-3.82265 0.92051,-7.6453 0.90769,-11.44529c-0.01026,-3.77984 -0.35128,-7.54961 -1.06154,-11.2942zm-9.4,34.72872c-0.5641,0.78317 -1.66923,0.96951 -2.46923,0.41551c-0.79744,-0.55401 -0.98718,-1.63936 -0.42308,-2.42504c1.01282,-1.40516 1.87179,-2.94631 2.57179,-4.62344c0.70256,-1.68217 1.24615,-3.52047 1.62564,-5.51741c0.70256,-3.70178 0.3641,-8.45869 0.04359,-12.9537c-0.10769,-1.51093 -0.21538,-2.99416 -0.28205,-4.54034c-0.1,-2.25129 -0.14103,-4.4648 0.28718,-6.48944c0.47692,-2.24373 1.50513,-4.19535 3.56923,-5.6131c0.4641,-0.31981 0.9641,-0.60437 1.5,-0.84612c0.5359,-0.24427 1.11538,-0.45832 1.7359,-0.62955c0.45641,-0.12843 0.91282,-0.22916 1.36923,-0.30722c3.08462,-0.51875 5.5359,0.26945 7.43077,1.8937c1.78205,1.52604 2.99231,3.76725 3.72821,6.30561c0.21795,0.75546 0.39744,1.54115 0.53846,2.3495c0.07436,0.43565 0.14103,0.88138 0.19231,1.32458c0.05385,0.43565 0.09487,0.88893 0.12564,1.34725c0.30513,4.55042 0.10256,10.22899 -0.52308,15.7867c-0.6,5.32603 -1.59744,10.57903 -2.92051,14.67113c-0.29487,0.91411 -1.29231,1.42279 -2.22564,1.1332a1.77103,1.73933 0 0 1 -1.15385,-2.18581c1.24359,-3.8428 2.18974,-8.86412 2.76667,-14.00128c0.60513,-5.36632 0.8,-10.82833 0.50769,-15.18484c-0.02564,-0.3727 -0.06154,-0.76554 -0.11026,-1.17097c-0.04359,-0.37521 -0.1,-0.75546 -0.16667,-1.1332c-0.11538,-0.6774 -0.26667,-1.33969 -0.45128,-1.97932c-0.5641,-1.93651 -1.42821,-3.59601 -2.64359,-4.63855c-1.10513,-0.94433 -2.58205,-1.39761 -4.49744,-1.07528l-0.00513,0c-0.30256,0.05036 -0.63333,0.12591 -0.98718,0.22412c-0.45128,0.12591 -0.86154,0.27449 -1.22308,0.43817c-0.3641,0.1662 -0.68205,0.345 -0.95641,0.53386c-1.20256,0.82597 -1.81795,2.04227 -2.12051,3.46758c-0.35128,1.64691 -0.30769,3.61112 -0.22051,5.62821c0.05897,1.33214 0.17179,2.88336 0.28205,4.45976c0.3359,4.69899 0.69231,9.67247 -0.1,13.82753c-0.41795,2.20344 -1.03077,4.26586 -1.83333,6.18726c-0.80256,1.92392 -1.79231,3.69926 -2.96154,5.32099zm-3.10256,-12.58101c-0.17436,0.98714 -1.13077,1.64691 -2.1359,1.47567c-1.00513,-0.17124 -1.67692,-1.11305 -1.50256,-2.09767c0.34872,-1.91888 0.54615,-4.06188 0.61282,-6.39123c0.07179,-2.37216 0.01282,-4.97348 -0.14872,-7.75611c-0.0359,-0.60689 -0.08974,-1.35228 -0.14103,-2.06746c-0.34359,-4.80476 -0.62308,-8.67525 2.25385,-13.70161c1.27692,-2.23114 3.05641,-4.13743 5.45897,-5.63829c0.09231,-0.05792 0.18462,-0.10325 0.27949,-0.14354c1.74103,-0.82094 3.47692,-1.45805 5.21026,-1.87355c1.79744,-0.43061 3.57949,-0.622 5.34103,-0.52631c1.01538,0.05036 1.79744,0.90152 1.74615,1.89874c-0.05128,0.99973 -0.91795,1.76779 -1.93333,1.71491c-1.40256,-0.07303 -2.83333,0.08058 -4.28718,0.43061c-1.44872,0.34751 -2.93333,0.89397 -4.44615,1.6041c-1.82821,1.15586 -3.18205,2.61139 -4.15128,4.30615c-2.3359,4.08203 -2.09231,7.46903 -1.78974,11.67193l0,0.00755c0.04359,0.63207 0.09231,1.27925 0.14103,2.11782c0.1641,2.8481 0.22308,5.54511 0.14872,8.05326c-0.07436,2.55095 -0.28462,4.87275 -0.65641,6.91502zm20.84615,-33.34622a1.84667,1.81362 0 0 1 -0.61282,-2.488a1.84231,1.80934 0 0 1 2.53333,-0.60185c0.44615,0.26693 0.90256,0.57164 1.3641,0.91159c0.47179,0.34751 0.91795,0.70762 1.33333,1.08031c5.84872,5.21774 7.8359,13.58326 7.96667,22.32399c0.12308,8.46372 -1.49487,17.29259 -2.97949,23.79966c-0.21795,0.97455 -1.20256,1.58899 -2.19487,1.37495a1.84308,1.81009 0 0 1 -1.4,-2.15559c1.43846,-6.31317 3.01026,-14.86251 2.89231,-22.9762c-0.11538,-7.83921 -1.80769,-15.26291 -6.76923,-19.68741a15.02974,14.76078 0 0 0 -1.05641,-0.86627c-0.34103,-0.25182 -0.70256,-0.49105 -1.07692,-0.71517zm-33.09744,39.2187a1.85128,1.81815 0 0 1 -2.61538,-0.15613c-0.67692,-0.75295 -0.60513,-1.90377 0.16154,-2.56858c1.84103,-1.59907 3.18718,-3.66149 3.9641,-6.25273c0.80769,-2.68694 1.00769,-5.96314 0.53333,-9.89407c-0.89231,-4.30111 -1.05128,-8.27486 -0.52821,-11.86332c0.54615,-3.77229 1.84615,-7.12152 3.83333,-9.98473c0.57692,-0.83101 1.73333,-1.04506 2.57949,-0.47846c0.84615,0.5666 1.0641,1.70231 0.48718,2.53333c-1.6641,2.39986 -2.75641,5.23285 -3.22564,8.44358c-0.4641,3.18806 -0.31538,6.74378 0.48718,10.62184c0.02308,0.08814 0.04359,0.17879 0.05385,0.27449c0.54103,4.43458 0.29231,8.20435 -0.65897,11.37478c-0.98205,3.27368 -2.70513,5.89766 -5.0718,7.95001zm15.44615,-45.06096c-0.88718,0.49861 -2.02051,0.19894 -2.52821,-0.67236a1.85051,1.8174 0 0 1 0.68205,-2.48296c1.7359,-0.9821 3.57436,-1.76275 5.47436,-2.32935c5.22308,-1.55878 10.89487,-1.51345 16.05128,0.26441c5.18718,1.79045 9.85385,5.31847 13.02564,10.70997l0.05641,0.10577c1.03077,1.77282 1.90256,3.74711 2.57436,5.92033c0.97949,3.16288 1.64359,6.68586 1.97949,10.55636c0.33333,3.80251 0.35641,7.97519 0.05897,12.51553l-1.07692,10.45815a1.85385,1.82067 0 1 1 -3.68974,-0.35759l1.06154,-10.3272c0.28205,-4.33889 0.26154,-8.33781 -0.05897,-11.98923c-0.31795,-3.64638 -0.92821,-6.91502 -1.82051,-9.8009c-0.58718,-1.90377 -1.34615,-3.62623 -2.24103,-5.16486l-0.05641,-0.08814c-2.69744,-4.59071 -6.64872,-7.58487 -11.03333,-9.09832c-4.41282,-1.521 -9.27436,-1.55878 -13.75641,-0.2216a22.32487,21.92535 0 0 0 -4.70256,2.00198zm41.45898,29.8736c0,-1.01736 0.84103,-1.84585 1.87949,-1.84585c1.0359,0 1.87949,0.82849 1.87949,1.84585l0,6.34842c0,1.01736 -0.84359,1.84333 -1.87949,1.84333c-1.03846,0 -1.87949,-0.82597 -1.87949,-1.84333l0,-6.34842zm-61.79487,9.70269a1.87436,1.84082 0 0 1 -2.64103,-0.18887c-0.67692,-0.76806 -0.58974,-1.92895 0.18974,-2.59376c0.3641,-0.30974 0.68718,-0.67992 0.9641,-1.10802c0.28718,-0.44824 0.52821,-0.97455 0.72308,-1.57892c1.00256,-3.14273 0.38974,-6.46174 -0.23333,-9.8286c-0.43077,-2.32683 -0.8641,-4.67885 -0.84872,-7.14922c0.07436,-12.60115 8.09744,-22.87799 18.58974,-28.13603c4.40256,-2.20596 9.25385,-3.53306 14.14615,-3.77984c4.92051,-0.24679 9.87949,0.59682 14.45897,2.7373c10.21282,4.7695 18.50513,15.90757 20.22564,35.6101a1.87872,1.8451 0 0 1 -1.71795,1.98939a1.87872,1.8451 0 0 1 -2.02564,-1.6872c-1.58718,-18.17648 -8.98974,-28.33749 -18.08205,-32.5832c-4.00256,-1.87103 -8.34872,-2.60887 -12.66667,-2.38979c-4.34872,0.21908 -8.68205,1.4102 -12.63333,3.38952c-9.34615,4.68136 -16.48718,13.76961 -16.55385,24.86487c-0.01026,2.13797 0.39231,4.32378 0.79231,6.48692c0.70513,3.81762 1.40256,7.58739 0.12821,11.5712c-0.28718,0.90404 -0.66923,1.71742 -1.13333,2.44267c-0.47692,0.74036 -1.03846,1.3825 -1.68205,1.93147z" fill-rule="nonzero"/>
  </g>
 </g>
</svg>